<svg width="45" height="45" viewBox="0 0 45 45" fill="none" xmlns="http://www.w3.org/2000/svg">
<circle cx="22.5" cy="22.5" r="21.9" stroke="#969696" stroke-width="1.2" stroke-dasharray="6 4"/>
<path d="M31.081 26.0948C30.9224 25.8861 30.7083 25.7231 30.4645 25.6265C30.0379 25.4576 29.5749 25.4927 29.1857 25.7175L26.6157 27.2013C26.6011 27.418 26.56 27.637 26.4881 27.854C26.0463 29.1867 24.62 29.9251 23.2638 29.5617L20.7234 28.881C20.4108 28.7973 20.2253 28.476 20.309 28.1634C20.3928 27.8508 20.7141 27.6653 21.0267 27.7491L23.6059 28.4402C24.3873 28.6495 25.1906 28.1858 25.3999 27.4044C25.6093 26.6229 25.1456 25.8197 24.3642 25.6103L20.4264 24.5552C19.6705 24.3527 18.881 24.4566 18.2033 24.8479L13.2931 27.6828C13.0128 27.8446 12.9168 28.203 13.0786 28.4832L15.5171 32.7069C15.5948 32.8415 15.7228 32.9396 15.8729 32.9799C16.023 33.0201 16.1829 32.9991 16.3175 32.9213L18.5319 31.6428L23.2687 31.9484C23.8478 31.9857 24.4195 31.8521 24.9221 31.5619L30.6506 28.2547C31.4043 27.8194 31.625 26.8109 31.081 26.0948V26.0948Z" fill="#969696"/>
<path d="M18.2852 22.375H26.0976C26.4212 22.375 26.6836 22.1126 26.6836 21.789C26.6836 20.2338 25.8891 18.8608 24.6847 18.0542C24.0358 18.6737 23.1573 19.0547 22.1914 19.0547C21.2255 19.0547 20.347 18.6737 19.6981 18.0542C18.4937 18.8608 17.6992 20.2338 17.6992 21.789C17.6992 22.1126 17.9616 22.375 18.2852 22.375Z" fill="#969696"/>
<path d="M22.1914 17.8828C23.5398 17.8828 24.6328 16.7898 24.6328 15.4414C24.6328 14.0931 23.5398 13 22.1914 13C20.8431 13 19.75 14.0931 19.75 15.4414C19.75 16.7898 20.8431 17.8828 22.1914 17.8828Z" fill="#969696"/>
</svg>
