<svg width="45" height="45" viewBox="0 0 45 45" fill="none" xmlns="http://www.w3.org/2000/svg">
<circle cx="22.5" cy="22.5" r="21.9" stroke="#969696" stroke-width="1.2" stroke-dasharray="6 4"/>
<path d="M27.7492 13.6932C27.2516 13.2249 26.6148 13 25.973 13C25.2506 13 24.521 13.2848 23.977 13.8295L23.7436 14.063L23.5101 13.8288C22.9661 13.2848 22.2365 13 21.5141 13C20.8723 13 20.2355 13.2249 19.7379 13.6932C18.6436 14.7233 18.6243 16.4466 19.6794 17.5018L23.7436 21.5659L27.8077 17.5018C28.8628 16.4466 28.8436 14.7233 27.7492 13.6932Z" fill="#969696"/>
<path d="M31.739 23.6352C31.1144 23.2119 30.3783 23.3318 29.7266 23.708C29.0748 24.0842 25.3326 27.2839 25.3326 27.2839L21.6489 27.2846C21.4776 27.2846 21.292 27.0919 21.292 26.9212C21.292 26.7206 21.4669 26.5643 21.6489 26.5643H23.9027C24.6915 26.5643 25.5746 26.0503 25.5746 25.1365C25.5746 24.1656 24.6915 23.7087 23.9027 23.7087C22.5341 23.7087 22.2679 23.7145 22.2679 23.7145C21.7196 23.7145 21.1635 23.6816 20.7351 23.4525C20.164 23.1598 19.5058 22.9941 18.8034 22.9941C17.624 22.9941 16.5682 23.4646 15.8443 24.2063L12 27.9914L16.2833 32.2747L17.7111 30.8469H24.9406C25.6602 30.8469 26.3549 30.5828 26.8924 30.1052L31.7875 24.614C32.0867 24.3484 32.0695 23.8601 31.739 23.6352Z" fill="#969696"/>
</svg>
