<svg width="45" height="45" viewBox="0 0 45 45" fill="none" xmlns="http://www.w3.org/2000/svg">
<circle cx="22.5" cy="22.5" r="21.9" stroke="#969696" stroke-width="1.2" stroke-dasharray="6 4"/>
<path d="M32.936 20.5945C32.8637 20.3721 32.6716 20.21 32.4402 20.1765L25.9406 19.232L23.0338 13.3424C22.9304 13.1327 22.7169 13 22.4831 13C22.2493 13 22.0357 13.1327 21.9323 13.3424L19.0254 19.232L12.5259 20.1765C12.2946 20.21 12.1023 20.3721 12.0301 20.5945C11.9578 20.8169 12.0181 21.061 12.1855 21.2242L16.8885 25.8086L15.7784 32.282C15.7389 32.5124 15.8336 32.7453 16.0228 32.8827C16.1298 32.9604 16.2565 33 16.3839 33C16.4816 33 16.5798 32.9767 16.6696 32.9294L22.483 29.8731L28.2962 32.9294C28.5032 33.0382 28.754 33.0201 28.9431 32.8827C29.1322 32.7453 29.227 32.5123 29.1875 32.2819L28.0771 25.8086L32.7806 21.2241C32.948 21.061 33.0083 20.8169 32.936 20.5945Z" fill="#969696"/>
</svg>
